{
  "asset": {
    "version": "2.0",
    "generator": "Sketchup glTF Exporter v1.2.6 by Centaur"
  },
  "scene": 0,
  "scenes": [
    {
      "nodes": [
        0
      ]
    }
  ],
  "samplers": [
    {
    }
  ],
  "nodes": [
    {
      "name": "root",
      "children": [
        1,
        2,
        3,
        4,
        5,
        6,
        7,
        8,
        9,
        10,
        11,
        12,
        13,
        14,
        15
      ]
    },
    {
      "mesh": 0
    },
    {
      "mesh": 1
    },
    {
      "mesh": 2
    },
    {
      "mesh": 3
    },
    {
      "mesh": 4
    },
    {
      "mesh": 5
    },
    {
      "mesh": 6
    },
    {
      "mesh": 7
    },
    {
      "mesh": 8
    },
    {
      "mesh": 9
    },
    {
      "name": "东 软 载 波#1",
      "mesh": 10
    },
    {
      "name": "东软载波",
      "mesh": 11
    },
    {
      "mesh": 12
    },
    {
      "mesh": 13
    },
    {
      "mesh": 14
    }
  ],
  "materials": [
    {
      "pbrMetallicRoughness": {
        "baseColorFactor": [
          0.0697,
          0.1113,
          0.1166,
          0.5
        ],
        "metallicFactor": 0.1,
        "roughnessFactor": 0.9
      },
      "name": "0089 浅宝石绿",
      "doubleSided": true,
      "alphaMode": "BLEND"
    },
    {
      "pbrMetallicRoughness": {
        "baseColorTexture": {
          "index": 0
        },
        "metallicFactor": 0.1,
        "roughnessFactor": 0.9
      },
      "name": "材料21"
    },
    {
      "pbrMetallicRoughness": {
        "baseColorTexture": {
          "index": 1
        },
        "metallicFactor": 0.1,
        "roughnessFactor": 0.9
      },
      "name": "材料16"
    },
    {
      "pbrMetallicRoughness": {
        "baseColorFactor": [
          0.2176,
          0.2176,
          0.2176,
          1.0
        ],
        "metallicFactor": 0.1,
        "roughnessFactor": 0.9
      },
      "name": "default material",
      "doubleSided": true
    },
    {
      "pbrMetallicRoughness": {
        "baseColorTexture": {
          "index": 2
        },
        "metallicFactor": 0.1,
        "roughnessFactor": 0.9
      },
      "name": "材料7"
    },
    {
      "pbrMetallicRoughness": {
        "baseColorTexture": {
          "index": 3
        },
        "metallicFactor": 0.1,
        "roughnessFactor": 0.9
      },
      "name": "材料4"
    },
    {
      "pbrMetallicRoughness": {
        "baseColorTexture": {
          "index": 4
        },
        "metallicFactor": 0.1,
        "roughnessFactor": 0.9
      },
      "name": "材料3"
    },
    {
      "pbrMetallicRoughness": {
        "baseColorTexture": {
          "index": 5
        },
        "metallicFactor": 0.1,
        "roughnessFactor": 0.9
      },
      "name": "材料6"
    },
    {
      "pbrMetallicRoughness": {
        "baseColorTexture": {
          "index": 6
        },
        "metallicFactor": 0.1,
        "roughnessFactor": 0.9
      },
      "name": "材料24",
      "doubleSided": true
    },
    {
      "pbrMetallicRoughness": {
        "baseColorFactor": [
          0.7667,
          0.7667,
          0.7667,
          0.85
        ],
        "metallicFactor": 0.1,
        "roughnessFactor": 0.9
      },
      "name": "M01 色",
      "alphaMode": "BLEND"
    },
    {
      "pbrMetallicRoughness": {
        "baseColorFactor": [
          1.0,
          0.0,
          0.0,
          1.0
        ],
        "metallicFactor": 0.1,
        "roughnessFactor": 0.9
      },
      "name": "A05 色"
    }
  ],
  "images": [
    {
      "bufferView": 0,
      "mimeType": "image/jpeg"
    },
    {
      "bufferView": 1,
      "mimeType": "image/jpeg"
    },
    {
      "bufferView": 2,
      "mimeType": "image/jpeg"
    },
    {
      "bufferView": 3,
      "mimeType": "image/jpeg"
    },
    {
      "bufferView": 4,
      "mimeType": "image/jpeg"
    },
    {
      "bufferView": 5,
      "mimeType": "image/jpeg"
    },
    {
      "bufferView": 6,
      "mimeType": "image/jpeg"
    }
  ],
  "textures": [
    {
      "source": 0,
      "sampler": 0
    },
    {
      "source": 1,
      "sampler": 0
    },
    {
      "source": 2,
      "sampler": 0
    },
    {
      "source": 3,
      "sampler": 0
    },
    {
      "source": 4,
      "sampler": 0
    },
    {
      "source": 5,
      "sampler": 0
    },
    {
      "source": 6,
      "sampler": 0
    }
  ],
  "meshes": [
    {
      "primitives": [
        {
          "attributes": {
            "POSITION": 0,
            "NORMAL": 1
          },
          "indices": 5,
          "mode": 4,
          "material": 0
        }
      ]
    },
    {
      "primitives": [
        {
          "attributes": {
            "POSITION": 2,
            "NORMAL": 3,
            "TEXCOORD_0": 4
          },
          "indices": 6,
          "mode": 4,
          "material": 1
        }
      ]
    },
    {
      "primitives": [
        {
          "attributes": {
            "POSITION": 2,
            "NORMAL": 3,
            "TEXCOORD_0": 4
          },
          "indices": 7,
          "mode": 4,
          "material": 2
        },
        {
          "attributes": {
            "POSITION": 0,
            "NORMAL": 1
          },
          "indices": 8,
          "mode": 4,
          "material": 3
        },
        {
          "attributes": {
            "POSITION": 2,
            "NORMAL": 3,
            "TEXCOORD_0": 4
          },
          "indices": 9,
          "mode": 4,
          "material": 4
        },
        {
          "attributes": {
            "POSITION": 2,
            "NORMAL": 3,
            "TEXCOORD_0": 4
          },
          "indices": 10,
          "mode": 4,
          "material": 5
        },
        {
          "attributes": {
            "POSITION": 2,
            "NORMAL": 3,
            "TEXCOORD_0": 4
          },
          "indices": 11,
          "mode": 4,
          "material": 6
        },
        {
          "attributes": {
            "POSITION": 2,
            "NORMAL": 3,
            "TEXCOORD_0": 4
          },
          "indices": 12,
          "mode": 4,
          "material": 7
        }
      ]
    },
    {
      "primitives": [
        {
          "attributes": {
            "POSITION": 2,
            "NORMAL": 3,
            "TEXCOORD_0": 4
          },
          "indices": 13,
          "mode": 4,
          "material": 1
        }
      ]
    },
    {
      "primitives": [
        {
          "attributes": {
            "POSITION": 2,
            "NORMAL": 3,
            "TEXCOORD_0": 4
          },
          "indices": 14,
          "mode": 4,
          "material": 8
        }
      ]
    },
    {
      "primitives": [
        {
          "attributes": {
            "POSITION": 2,
            "NORMAL": 3,
            "TEXCOORD_0": 4
          },
          "indices": 15,
          "mode": 4,
          "material": 1
        },
        {
          "attributes": {
            "POSITION": 0,
            "NORMAL": 1
          },
          "indices": 16,
          "mode": 4,
          "material": 9
        }
      ]
    },
    {
      "primitives": [
        {
          "attributes": {
            "POSITION": 0,
            "NORMAL": 1
          },
          "indices": 17,
          "mode": 4,
          "material": 0
        }
      ]
    },
    {
      "primitives": [
        {
          "attributes": {
            "POSITION": 0,
            "NORMAL": 1
          },
          "indices": 18,
          "mode": 4,
          "material": 0
        }
      ]
    },
    {
      "primitives": [
        {
          "attributes": {
            "POSITION": 0,
            "NORMAL": 1
          },
          "indices": 19,
          "mode": 4,
          "material": 0
        }
      ]
    },
    {
      "primitives": [
        {
          "attributes": {
            "POSITION": 0,
            "NORMAL": 1
          },
          "indices": 20,
          "mode": 4,
          "material": 0
        }
      ]
    },
    {
      "primitives": [
        {
          "attributes": {
            "POSITION": 0,
            "NORMAL": 1
          },
          "indices": 21,
          "mode": 4,
          "material": 10
        }
      ]
    },
    {
      "primitives": [
        {
          "attributes": {
            "POSITION": 0,
            "NORMAL": 1
          },
          "indices": 22,
          "mode": 4,
          "material": 10
        }
      ]
    },
    {
      "primitives": [
        {
          "attributes": {
            "POSITION": 0,
            "NORMAL": 1
          },
          "indices": 23,
          "mode": 4,
          "material": 10
        }
      ]
    },
    {
      "primitives": [
        {
          "attributes": {
            "POSITION": 2,
            "NORMAL": 3,
            "TEXCOORD_0": 4
          },
          "indices": 24,
          "mode": 4,
          "material": 8
        }
      ]
    },
    {
      "primitives": [
        {
          "attributes": {
            "POSITION": 0,
            "NORMAL": 1
          },
          "indices": 25,
          "mode": 4,
          "material": 0
        }
      ]
    }
  ],
  "accessors": [
    {
      "bufferView": 7,
      "componentType": 5126,
      "count": 5470,
      "type": "VEC3",
      "min": [
        279.2756017788083,
        0.5440000000058038,
        65.13783842352542
      ],
      "max": [
        356.2352616954679,
        60.34788763686837,
        99.73099049647685
      ]
    },
    {
      "bufferView": 8,
      "componentType": 5126,
      "count": 5470,
      "type": "VEC3",
      "min": [
        -1.0,
        -1.0,
        -1.0
      ],
      "max": [
        1.0,
        1.0,
        1.0
      ]
    },
    {
      "bufferView": 9,
      "componentType": 5126,
      "count": 738,
      "type": "VEC3",
      "min": [
        278.5381017788083,
        0.29100000000572857,
        69.09259045259996
      ],
      "max": [
        356.911861487334,
        58.383,
        99.73099049647685
      ]
    },
    {
      "bufferView": 10,
      "componentType": 5126,
      "count": 738,
      "type": "VEC3",
      "min": [
        -1.0,
        -1.0,
        -1.0
      ],
      "max": [
        1.0,
        1.0,
        1.0
      ]
    },
    {
      "bufferView": 11,
      "componentType": 5126,
      "count": 738,
      "type": "VEC2",
      "min": [
        -235.37054650537152,
        -37.93072755944653
      ],
      "max": [
        235.37054650537152,
        64.82255141831762
      ]
    },
    {
      "bufferView": 12,
      "componentType": 5123,
      "count": 36,
      "type": "SCALAR"
    },
    {
      "bufferView": 13,
      "componentType": 5123,
      "count": 420,
      "type": "SCALAR"
    },
    {
      "bufferView": 13,
      "componentType": 5123,
      "count": 36,
      "type": "SCALAR",
      "byteOffset": 840
    },
    {
      "bufferView": 12,
      "componentType": 5123,
      "count": 6,
      "type": "SCALAR",
      "byteOffset": 72
    },
    {
      "bufferView": 13,
      "componentType": 5123,
      "count": 6,
      "type": "SCALAR",
      "byteOffset": 912
    },
    {
      "bufferView": 13,
      "componentType": 5123,
      "count": 12,
      "type": "SCALAR",
      "byteOffset": 924
    },
    {
      "bufferView": 13,
      "componentType": 5123,
      "count": 48,
      "type": "SCALAR",
      "byteOffset": 948
    },
    {
      "bufferView": 13,
      "componentType": 5123,
      "count": 6,
      "type": "SCALAR",
      "byteOffset": 1044
    },
    {
      "bufferView": 13,
      "componentType": 5123,
      "count": 420,
      "type": "SCALAR",
      "byteOffset": 1056
    },
    {
      "bufferView": 13,
      "componentType": 5123,
      "count": 207,
      "type": "SCALAR",
      "byteOffset": 1896
    },
    {
      "bufferView": 13,
      "componentType": 5123,
      "count": 24,
      "type": "SCALAR",
      "byteOffset": 2310
    },
    {
      "bufferView": 12,
      "componentType": 5123,
      "count": 12,
      "type": "SCALAR",
      "byteOffset": 84
    },
    {
      "bufferView": 12,
      "componentType": 5123,
      "count": 36,
      "type": "SCALAR",
      "byteOffset": 108
    },
    {
      "bufferView": 12,
      "componentType": 5123,
      "count": 36,
      "type": "SCALAR",
      "byteOffset": 180
    },
    {
      "bufferView": 12,
      "componentType": 5123,
      "count": 36,
      "type": "SCALAR",
      "byteOffset": 252
    },
    {
      "bufferView": 12,
      "componentType": 5123,
      "count": 36,
      "type": "SCALAR",
      "byteOffset": 324
    },
    {
      "bufferView": 12,
      "componentType": 5123,
      "count": 4764,
      "type": "SCALAR",
      "byteOffset": 396
    },
    {
      "bufferView": 12,
      "componentType": 5123,
      "count": 4764,
      "type": "SCALAR",
      "byteOffset": 9924
    },
    {
      "bufferView": 12,
      "componentType": 5123,
      "count": 3288,
      "type": "SCALAR",
      "byteOffset": 19452
    },
    {
      "bufferView": 13,
      "componentType": 5123,
      "count": 207,
      "type": "SCALAR",
      "byteOffset": 2358
    },
    {
      "bufferView": 12,
      "componentType": 5123,
      "count": 36,
      "type": "SCALAR",
      "byteOffset": 26028
    }
  ],
  "bufferViews": [
    {
      "buffer": 0,
      "byteLength": 14872
    },
    {
      "buffer": 0,
      "byteOffset": 14872,
      "byteLength": 7244
    },
    {
      "buffer": 0,
      "byteOffset": 22116,
      "byteLength": 1087519
    },
    {
      "buffer": 0,
      "byteOffset": 1109635,
      "byteLength": 275821
    },
    {
      "buffer": 0,
      "byteOffset": 1385456,
      "byteLength": 7121
    },
    {
      "buffer": 0,
      "byteOffset": 1392577,
      "byteLength": 1035228
    },
    {
      "buffer": 0,
      "byteOffset": 2427805,
      "byteLength": 66042
    },
    {
      "buffer": 0,
      "byteOffset": 2493852,
      "byteLength": 65640,
      "target": 34962,
      "byteStride": 12
    },
    {
      "buffer": 0,
      "byteOffset": 2559492,
      "byteLength": 65640,
      "target": 34962,
      "byteStride": 12
    },
    {
      "buffer": 0,
      "byteOffset": 2625132,
      "byteLength": 8856,
      "target": 34962,
      "byteStride": 12
    },
    {
      "buffer": 0,
      "byteOffset": 2633988,
      "byteLength": 8856,
      "target": 34962,
      "byteStride": 12
    },
    {
      "buffer": 0,
      "byteOffset": 2642848,
      "byteLength": 5904,
      "target": 34962,
      "byteStride": 8
    },
    {
      "buffer": 0,
      "byteOffset": 2648752,
      "byteLength": 26100,
      "target": 34963
    },
    {
      "buffer": 0,
      "byteOffset": 2674852,
      "byteLength": 2772,
      "target": 34963
    }
  ],
  "buffers": [
    {
      "uri": "data:application/octet-stream;base64,",
      "byteLength": 2677624
    }
  ]
}