{
  "asset": {
    "version": "2.0",
    "generator": "Sketchup glTF Exporter v1.2.6 by Centaur"
  },
  "scene": 0,
  "scenes": [
    {
      "nodes": [
        0
      ]
    }
  ],
  "samplers": [
    {
    }
  ],
  "nodes": [
    {
      "name": "root",
      "children": [
        1
      ]
    },
    {
      "children": [
        2,
        3,
        4,
        5,
        6
      ]
    },
    {
      "mesh": 0
    },
    {
      "mesh": 1
    },
    {
      "mesh": 2
    },
    {
      "mesh": 3
    },
    {
      "children": [
        7,
        8,
        9,
        10,
        11,
        12,
        13,
        14,
        15,
        16,
        17,
        18,
        19,
        20,
        21,
        22,
        23,
        24,
        25
      ]
    },
    {
      "name": "bend Metric DIN_11866_Row_A/C DN50 R70 16.41 53/50 Bseg12/1 Pseg12/1 0#1",
      "mesh": 4
    },
    {
      "name": "pipe Metric DIN_11866_Row_A/C DN50 185 53/50 Pseg12/1 0",
      "mesh": 5
    },
    {
      "name": "bend Metric DIN_11866_Row_A/C DN50 R70 18.39 53/50 Bseg12/1 Pseg12/1 0#1",
      "mesh": 6
    },
    {
      "name": "pipe Metric DIN_11866_Row_A/C DN50 396 53/50 Pseg12/1 0",
      "mesh": 7
    },
    {
      "name": "bend Metric DIN_11866_Row_A/C DN50 R70 32.93 53/50 Bseg12/1 Pseg12/1 0#1",
      "mesh": 8
    },
    {
      "name": "pipe Metric DIN_11866_Row_A/C DN50 133 53/50 Pseg12/1 0",
      "mesh": 9
    },
    {
      "name": "bend Metric DIN_11866_Row_A/C DN50 R70 22.26 53/50 Bseg12/1 Pseg12/1 0#1",
      "mesh": 10
    },
    {
      "name": "pipe Metric DIN_11866_Row_A/C DN50 259 53/50 Pseg12/1 0",
      "mesh": 11
    },
    {
      "name": "bend Metric DIN_11866_Row_A/C DN50 R70 42.89 53/50 Bseg12/1 Pseg12/1 0#1",
      "mesh": 12
    },
    {
      "name": "pipe Metric DIN_11866_Row_A/C DN50 148 53/50 Pseg12/1 0",
      "mesh": 13
    },
    {
      "name": "bend Metric DIN_11866_Row_A/C DN50 R70 27.78 53/50 Bseg12/1 Pseg12/1 0#1",
      "mesh": 14
    },
    {
      "name": "pipe Metric DIN_11866_Row_A/C DN50 246 53/50 Pseg12/1 0",
      "mesh": 15
    },
    {
      "name": "bend Metric DIN_11866_Row_A/C DN50 R70 20.21 53/50 Bseg12/1 Pseg12/1 0#1",
      "mesh": 16
    },
    {
      "name": "pipe Metric DIN_11866_Row_A/C DN50 125 53/50 Pseg12/1 0 TW-3.267",
      "mesh": 17
    },
    {
      "name": "bend Metric DIN_11866_Row_A/C DN50 R70 15.27 53/50 Bseg12/1 Pseg12/1 0#1",
      "mesh": 18
    },
    {
      "name": "pipe Metric DIN_11866_Row_A/C DN50 444 53/50 Pseg12/1 0 TW-4.28",
      "mesh": 19
    },
    {
      "name": "bend Metric DIN_11866_Row_A/C DN50 R70 15.5 53/50 Bseg12/1 Pseg12/1 0#1",
      "mesh": 20
    },
    {
      "name": "pipe Metric DIN_11866_Row_A/C DN50 195 53/50 Pseg12/1 0 TW-1.776",
      "mesh": 21
    },
    {
      "name": "pipe Metric DIN_11866_Row_A/C DN50 339 53/50 Pseg12/1 0",
      "mesh": 22
    }
  ],
  "materials": [
    {
      "pbrMetallicRoughness": {
        "baseColorFactor": [
          0.9158,
          0.5418,
          0.1087,
          1.0
        ],
        "metallicFactor": 0.1,
        "roughnessFactor": 0.9
      },
      "name": "0038 橙色"
    },
    {
      "pbrMetallicRoughness": {
        "baseColorFactor": [
          0.482,
          0.5924,
          0.687,
          1.0
        ],
        "metallicFactor": 0.1,
        "roughnessFactor": 0.9
      },
      "name": "M02 色"
    },
    {
      "pbrMetallicRoughness": {
        "baseColorTexture": {
          "index": 0
        },
        "metallicFactor": 0.1,
        "roughnessFactor": 0.9
      },
      "name": "材料31"
    },
    {
      "pbrMetallicRoughness": {
        "baseColorTexture": {
          "index": 1
        },
        "metallicFactor": 0.1,
        "roughnessFactor": 0.9
      },
      "name": "材料32"
    },
    {
      "pbrMetallicRoughness": {
        "baseColorTexture": {
          "index": 2
        },
        "metallicFactor": 0.1,
        "roughnessFactor": 0.9
      },
      "name": "材料33"
    },
    {
      "pbrMetallicRoughness": {
        "baseColorFactor": [
          1.0,
          0.687,
          0.0,
          1.0
        ],
        "metallicFactor": 0.1,
        "roughnessFactor": 0.9
      },
      "name": "0046 金黄色"
    },
    {
      "pbrMetallicRoughness": {
        "baseColorFactor": [
          0.1332,
          0.1332,
          0.1332,
          1.0
        ],
        "metallicFactor": 0.1,
        "roughnessFactor": 0.9
      },
      "name": "Stacy_Shirt"
    }
  ],
  "images": [
    {
      "bufferView": 0,
      "mimeType": "image/jpeg"
    },
    {
      "bufferView": 1,
      "mimeType": "image/jpeg"
    },
    {
      "bufferView": 2,
      "mimeType": "image/jpeg"
    }
  ],
  "textures": [
    {
      "source": 0,
      "sampler": 0
    },
    {
      "source": 1,
      "sampler": 0
    },
    {
      "source": 2,
      "sampler": 0
    }
  ],
  "meshes": [
    {
      "primitives": [
        {
          "attributes": {
            "POSITION": 0,
            "NORMAL": 1
          },
          "indices": 5,
          "mode": 4,
          "material": 0
        }
      ]
    },
    {
      "primitives": [
        {
          "attributes": {
            "POSITION": 0,
            "NORMAL": 1
          },
          "indices": 6,
          "mode": 4,
          "material": 1
        },
        {
          "attributes": {
            "POSITION": 2,
            "NORMAL": 3,
            "TEXCOORD_0": 4
          },
          "indices": 7,
          "mode": 4,
          "material": 2
        },
        {
          "attributes": {
            "POSITION": 2,
            "NORMAL": 3,
            "TEXCOORD_0": 4
          },
          "indices": 8,
          "mode": 4,
          "material": 3
        },
        {
          "attributes": {
            "POSITION": 2,
            "NORMAL": 3,
            "TEXCOORD_0": 4
          },
          "indices": 9,
          "mode": 4,
          "material": 4
        }
      ]
    },
    {
      "primitives": [
        {
          "attributes": {
            "POSITION": 0,
            "NORMAL": 1
          },
          "indices": 10,
          "mode": 4,
          "material": 1
        }
      ]
    },
    {
      "primitives": [
        {
          "attributes": {
            "POSITION": 0,
            "NORMAL": 1
          },
          "indices": 11,
          "mode": 4,
          "material": 5
        }
      ]
    },
    {
      "primitives": [
        {
          "attributes": {
            "POSITION": 0,
            "NORMAL": 1
          },
          "indices": 12,
          "mode": 4,
          "material": 6
        }
      ]
    },
    {
      "primitives": [
        {
          "attributes": {
            "POSITION": 0,
            "NORMAL": 1
          },
          "indices": 13,
          "mode": 4,
          "material": 6
        }
      ]
    },
    {
      "primitives": [
        {
          "attributes": {
            "POSITION": 0,
            "NORMAL": 1
          },
          "indices": 14,
          "mode": 4,
          "material": 6
        }
      ]
    },
    {
      "primitives": [
        {
          "attributes": {
            "POSITION": 0,
            "NORMAL": 1
          },
          "indices": 15,
          "mode": 4,
          "material": 6
        }
      ]
    },
    {
      "primitives": [
        {
          "attributes": {
            "POSITION": 0,
            "NORMAL": 1
          },
          "indices": 16,
          "mode": 4,
          "material": 6
        }
      ]
    },
    {
      "primitives": [
        {
          "attributes": {
            "POSITION": 0,
            "NORMAL": 1
          },
          "indices": 17,
          "mode": 4,
          "material": 6
        }
      ]
    },
    {
      "primitives": [
        {
          "attributes": {
            "POSITION": 0,
            "NORMAL": 1
          },
          "indices": 18,
          "mode": 4,
          "material": 6
        }
      ]
    },
    {
      "primitives": [
        {
          "attributes": {
            "POSITION": 0,
            "NORMAL": 1
          },
          "indices": 19,
          "mode": 4,
          "material": 6
        }
      ]
    },
    {
      "primitives": [
        {
          "attributes": {
            "POSITION": 0,
            "NORMAL": 1
          },
          "indices": 20,
          "mode": 4,
          "material": 6
        }
      ]
    },
    {
      "primitives": [
        {
          "attributes": {
            "POSITION": 0,
            "NORMAL": 1
          },
          "indices": 21,
          "mode": 4,
          "material": 6
        }
      ]
    },
    {
      "primitives": [
        {
          "attributes": {
            "POSITION": 0,
            "NORMAL": 1
          },
          "indices": 22,
          "mode": 4,
          "material": 6
        }
      ]
    },
    {
      "primitives": [
        {
          "attributes": {
            "POSITION": 0,
            "NORMAL": 1
          },
          "indices": 23,
          "mode": 4,
          "material": 6
        }
      ]
    },
    {
      "primitives": [
        {
          "attributes": {
            "POSITION": 0,
            "NORMAL": 1
          },
          "indices": 24,
          "mode": 4,
          "material": 6
        }
      ]
    },
    {
      "primitives": [
        {
          "attributes": {
            "POSITION": 0,
            "NORMAL": 1
          },
          "indices": 25,
          "mode": 4,
          "material": 6
        }
      ]
    },
    {
      "primitives": [
        {
          "attributes": {
            "POSITION": 0,
            "NORMAL": 1
          },
          "indices": 26,
          "mode": 4,
          "material": 6
        }
      ]
    },
    {
      "primitives": [
        {
          "attributes": {
            "POSITION": 0,
            "NORMAL": 1
          },
          "indices": 27,
          "mode": 4,
          "material": 6
        }
      ]
    },
    {
      "primitives": [
        {
          "attributes": {
            "POSITION": 0,
            "NORMAL": 1
          },
          "indices": 28,
          "mode": 4,
          "material": 6
        }
      ]
    },
    {
      "primitives": [
        {
          "attributes": {
            "POSITION": 0,
            "NORMAL": 1
          },
          "indices": 29,
          "mode": 4,
          "material": 6
        }
      ]
    },
    {
      "primitives": [
        {
          "attributes": {
            "POSITION": 0,
            "NORMAL": 1
          },
          "indices": 30,
          "mode": 4,
          "material": 6
        }
      ]
    }
  ],
  "accessors": [
    {
      "bufferView": 3,
      "componentType": 5126,
      "count": 4964,
      "type": "VEC3",
      "min": [
        353.77861958062124,
        0.39100000001651025,
        36.68693237154778
      ],
      "max": [
        354.55761958062124,
        3.6388800000165142,
        38.81769859390952
      ]
    },
    {
      "bufferView": 4,
      "componentType": 5126,
      "count": 4964,
      "type": "VEC3",
      "min": [
        -1.0,
        -1.0,
        -1.0
      ],
      "max": [
        1.0,
        1.0,
        1.0
      ]
    },
    {
      "bufferView": 5,
      "componentType": 5126,
      "count": 84,
      "type": "VEC3",
      "min": [
        353.94018418062126,
        1.8698800000165097,
        37.256482273909576
      ],
      "max": [
        354.39605498062116,
        3.6388800000165142,
        38.58933379390944
      ]
    },
    {
      "bufferView": 6,
      "componentType": 5126,
      "count": 84,
      "type": "VEC3",
      "min": [
        -1.0,
        -1.0,
        -1.0
      ],
      "max": [
        1.0,
        1.0,
        1.0
      ]
    },
    {
      "bufferView": 7,
      "componentType": 5126,
      "count": 84,
      "type": "VEC2",
      "min": [
        -11.999999529994792,
        -9.009954730403585
      ],
      "max": [
        21.80187067069669,
        0.6663971431575584
      ]
    },
    {
      "bufferView": 8,
      "componentType": 5123,
      "count": 36,
      "type": "SCALAR"
    },
    {
      "bufferView": 8,
      "componentType": 5123,
      "count": 450,
      "type": "SCALAR",
      "byteOffset": 72
    },
    {
      "bufferView": 9,
      "componentType": 5121,
      "count": 6,
      "type": "SCALAR"
    },
    {
      "bufferView": 9,
      "componentType": 5121,
      "count": 150,
      "type": "SCALAR",
      "byteOffset": 6
    },
    {
      "bufferView": 9,
      "componentType": 5121,
      "count": 54,
      "type": "SCALAR",
      "byteOffset": 156
    },
    {
      "bufferView": 8,
      "componentType": 5123,
      "count": 36,
      "type": "SCALAR",
      "byteOffset": 972
    },
    {
      "bufferView": 8,
      "componentType": 5123,
      "count": 1638,
      "type": "SCALAR",
      "byteOffset": 1044
    },
    {
      "bufferView": 8,
      "componentType": 5123,
      "count": 1872,
      "type": "SCALAR",
      "byteOffset": 4320
    },
    {
      "bufferView": 8,
      "componentType": 5123,
      "count": 288,
      "type": "SCALAR",
      "byteOffset": 8064
    },
    {
      "bufferView": 8,
      "componentType": 5123,
      "count": 1872,
      "type": "SCALAR",
      "byteOffset": 8640
    },
    {
      "bufferView": 8,
      "componentType": 5123,
      "count": 288,
      "type": "SCALAR",
      "byteOffset": 12384
    },
    {
      "bufferView": 8,
      "componentType": 5123,
      "count": 1872,
      "type": "SCALAR",
      "byteOffset": 12960
    },
    {
      "bufferView": 8,
      "componentType": 5123,
      "count": 288,
      "type": "SCALAR",
      "byteOffset": 16704
    },
    {
      "bufferView": 8,
      "componentType": 5123,
      "count": 1872,
      "type": "SCALAR",
      "byteOffset": 17280
    },
    {
      "bufferView": 8,
      "componentType": 5123,
      "count": 288,
      "type": "SCALAR",
      "byteOffset": 21024
    },
    {
      "bufferView": 8,
      "componentType": 5123,
      "count": 1872,
      "type": "SCALAR",
      "byteOffset": 21600
    },
    {
      "bufferView": 8,
      "componentType": 5123,
      "count": 288,
      "type": "SCALAR",
      "byteOffset": 25344
    },
    {
      "bufferView": 8,
      "componentType": 5123,
      "count": 1872,
      "type": "SCALAR",
      "byteOffset": 25920
    },
    {
      "bufferView": 8,
      "componentType": 5123,
      "count": 288,
      "type": "SCALAR",
      "byteOffset": 29664
    },
    {
      "bufferView": 8,
      "componentType": 5123,
      "count": 1872,
      "type": "SCALAR",
      "byteOffset": 30240
    },
    {
      "bufferView": 8,
      "componentType": 5123,
      "count": 288,
      "type": "SCALAR",
      "byteOffset": 33984
    },
    {
      "bufferView": 8,
      "componentType": 5123,
      "count": 1872,
      "type": "SCALAR",
      "byteOffset": 34560
    },
    {
      "bufferView": 8,
      "componentType": 5123,
      "count": 288,
      "type": "SCALAR",
      "byteOffset": 38304
    },
    {
      "bufferView": 8,
      "componentType": 5123,
      "count": 1872,
      "type": "SCALAR",
      "byteOffset": 38880
    },
    {
      "bufferView": 8,
      "componentType": 5123,
      "count": 288,
      "type": "SCALAR",
      "byteOffset": 42624
    },
    {
      "bufferView": 8,
      "componentType": 5123,
      "count": 288,
      "type": "SCALAR",
      "byteOffset": 43200
    }
  ],
  "bufferViews": [
    {
      "buffer": 0,
      "byteLength": 32659
    },
    {
      "buffer": 0,
      "byteOffset": 32659,
      "byteLength": 100241
    },
    {
      "buffer": 0,
      "byteOffset": 132900,
      "byteLength": 27524
    },
    {
      "buffer": 0,
      "byteOffset": 160428,
      "byteLength": 59568,
      "target": 34962,
      "byteStride": 12
    },
    {
      "buffer": 0,
      "byteOffset": 219996,
      "byteLength": 59568,
      "target": 34962,
      "byteStride": 12
    },
    {
      "buffer": 0,
      "byteOffset": 279564,
      "byteLength": 1008,
      "target": 34962,
      "byteStride": 12
    },
    {
      "buffer": 0,
      "byteOffset": 280572,
      "byteLength": 1008,
      "target": 34962,
      "byteStride": 12
    },
    {
      "buffer": 0,
      "byteOffset": 281584,
      "byteLength": 672,
      "target": 34962,
      "byteStride": 8
    },
    {
      "buffer": 0,
      "byteOffset": 282256,
      "byteLength": 43776,
      "target": 34963
    },
    {
      "buffer": 0,
      "byteOffset": 326032,
      "byteLength": 210,
      "target": 34963
    }
  ],
  "buffers": [
    {
      "uri": "data:application/octet-stream;base64,",
      "byteLength": 326242
    }
  ]
}